<svg width="651" height="276" viewBox="0 0 651 276" fill="none" xmlns="http://www.w3.org/2000/svg">
<path fill-rule="evenodd" clip-rule="evenodd" d="M558.036 2.23115C550.227 6.23515 550 7.28415 550 39.3782C550 67.2782 550.002 67.3092 552.472 71.5232C554.206 74.4822 556.147 76.2232 558.972 77.3532C562.935 78.9392 563 79.0472 563 84.0392C563 89.8672 564.322 92.9862 566.785 92.9682C567.728 92.9622 572.762 89.8122 577.972 85.9682L587.443 78.9812H612.702C642.157 78.9812 644.436 78.5072 648.528 71.5232L651 67.3052L650.996 38.8932C650.993 12.1652 650.873 10.2852 648.976 7.17315C647.811 5.26315 645.171 3.05315 642.729 1.94515C638.799 0.161153 635.809 0.0231519 600.462 0.00315187C562.96 -0.0188481 562.362 0.0131526 558.036 2.23115ZM558.766 8.89715L555.5 11.8142L555.226 37.6472C554.981 60.7452 555.14 63.8512 556.726 66.9702C557.876 69.2322 559.555 70.7702 561.5 71.3432C568.963 73.5422 569 73.5802 569 78.9602C569 81.8102 569.455 83.9812 570.053 83.9812C570.633 83.9812 574.453 81.5062 578.544 78.4812L585.981 72.9812L611.24 72.9792C638.858 72.9782 642.007 72.4142 644.721 66.9812C646.367 63.6882 646.512 16.7492 644.892 12.1002C642.793 6.08015 642.071 5.98115 600.065 5.98115H562.032L558.766 8.89715ZM60.601 18.2312C58.943 20.8122 53.819 33.8282 48.594 48.7312C39.617 74.3342 37.638 79.7642 35.771 83.9222C34.674 86.3642 31.842 93.3391 29.479 99.4221C25.436 109.828 14.695 135.164 9.454 146.658C5.949 154.347 0 172.849 0 176.064C0 179.276 3.133 181.981 6.854 181.981C10.245 181.981 14.441 177.178 25.491 160.65C36.075 144.82 48.817 127.199 54.88 120.008C58.732 115.44 66.568 110.621 68.365 111.715C70.231 112.851 68.061 121.978 63.56 131.922C50.093 161.675 48.987 176.958 59.982 181.357C70.035 185.379 80.483 181.495 93.131 169.033L100.81 161.466L102.655 164.286C103.67 165.837 106.716 168.749 109.425 170.757C113.574 173.833 115.32 174.47 120.5 174.8C128.759 175.326 135.222 172.063 144.175 162.85C147.846 159.072 151.108 155.981 151.425 155.981C151.741 155.981 152 156.716 152 157.615C152 161.378 154.551 167.265 157.855 171.124C164.644 179.056 174.872 181.16 184.105 176.522C186.797 175.17 188.995 174.382 188.989 174.772C188.983 175.162 188.308 177.69 187.489 180.39C185.607 186.595 185.606 186.587 188 188.981C190.513 191.494 196.117 191.631 198.231 189.231C199.658 187.61 213.7 145.823 216.038 136.241C217.248 131.278 225.185 120.482 230.046 117.185C234.668 114.051 238.248 114.568 239.022 118.481C240.071 123.79 237.262 140.526 232.519 157.221C226.411 178.727 226.084 181.226 229.106 183.342C232.158 185.481 236.301 185.43 238.207 183.231C239.041 182.268 241.331 175.801 243.296 168.858C250.593 143.072 262.768 119.424 271.922 113.255C276.168 110.393 277.224 110.41 280.694 113.394C283.323 115.654 283.522 116.379 283.849 124.886C284.487 141.459 278.857 166.241 269.516 187.981C266.326 195.406 263.513 203.355 263.264 205.646C262.872 209.256 263.149 210.033 265.341 211.469C266.733 212.381 269.137 212.981 270.685 212.804C273.081 212.529 274.045 211.382 277.158 205.096C281.88 195.565 289.48 174.704 291.956 164.481C297.669 140.89 298.433 116.232 293.771 105.89C289.594 96.6242 280.136 92.7482 270.593 96.3922C266.478 97.9642 258.87 104.933 254.732 110.921C253.805 112.262 252.891 113.162 252.701 112.921C252.511 112.679 251.155 110.383 249.687 107.818C243.709 97.3752 234.45 96.1601 224.664 104.536C221.008 107.666 220.474 107.858 219.847 106.268C219.458 105.285 219.109 102.669 219.07 100.454C218.973 94.9012 216.732 91.9812 212.566 91.9812C210.739 91.9812 208.795 92.5432 208.245 93.2312C207.695 93.9192 207.015 100.106 206.734 106.981C206.039 124.006 203.091 136.643 197.988 144.481C193.014 152.121 184.573 160.445 179.779 162.437C176.275 163.893 175.797 163.856 171.565 161.8C160.263 156.31 161.446 142.454 175.941 110.53C179.661 102.336 179.634 98.5222 175.837 95.7002C172.009 92.8552 168.531 94.0202 165.992 98.9972C164.874 101.188 163.856 102.974 163.73 102.966C163.603 102.958 161.7 102.302 159.5 101.51C150.419 98.2382 136.596 100.225 126.657 106.229C111.601 115.326 103.444 124.689 98.994 137.981C96.694 144.855 93.005 149.983 84.007 158.817C78.331 164.391 70.937 168.555 68.427 167.591C66.125 166.708 66.743 160.821 70.083 151.803C80.637 123.311 80.406 124.173 80.454 113.153L80.5 102.825L77.234 99.9032C74.459 97.4202 73.138 96.9812 68.444 96.9812C64.969 96.9812 61.523 97.6942 59.154 98.9032C55.097 100.972 45.745 110.212 39.005 118.811C34.467 124.6 32.796 125.065 35.474 119.793C38.552 113.734 47.16 91.7412 54.97 69.9812C59.215 58.1562 65.071 42.0612 67.984 34.2152C73.116 20.3942 73.225 19.8872 71.486 17.9652C68.881 15.0872 62.52 15.2432 60.601 18.2312ZM598 25.9812C598 29.2812 597.743 31.9812 597.428 31.9812C597.114 31.9812 594.858 30.8102 592.416 29.3792C589.974 27.9482 587.306 27.0332 586.488 27.3472C583.609 28.4522 585.053 30.9742 590 33.4812C592.75 34.8752 595 36.3631 595 36.7901C595 37.2161 592.51 38.7851 589.468 40.2781C584.519 42.7051 584.048 43.2021 585.003 44.9861C586.435 47.6631 587.696 47.4902 593 43.8912L597.5 40.8382L597.796 47.4092C598.076 53.6402 598.219 53.9812 600.546 53.9812C602.9 53.9812 603 53.7152 603 47.4812C603 43.9062 603.256 40.9812 603.57 40.9812C603.883 40.9812 606.102 42.3312 608.5 43.9812C613.628 47.5092 614.141 47.5872 615.708 45.0772C616.775 43.3692 616.335 42.8792 611.451 40.3272C608.456 38.7622 606.004 37.1692 606.002 36.7892C606.001 36.4082 608.25 34.8332 610.999 33.2892C613.748 31.7442 615.998 29.9042 615.999 29.2002C616.001 26.7282 612.983 26.8012 608.584 29.3792C606.142 30.8102 603.886 31.9812 603.572 31.9812C603.257 31.9812 603 29.2812 603 25.9812C603 20.2482 602.889 19.9812 600.5 19.9812C598.111 19.9812 598 20.2482 598 25.9812ZM413.157 97.0222C407.374 99.9172 403.789 102.542 400.525 106.272C394.497 113.162 388.279 126.111 386.189 136.13L384.5 144.222L371 146.99C351.947 150.895 344.647 152.828 336.944 156.004L330.22 158.777L329.155 153.129C326.091 136.869 325.769 131.584 327.485 125.681C328.921 120.742 329.711 119.649 333.409 117.482C335.756 116.106 338.37 114.981 339.219 114.981C342.023 114.981 347 121.079 347 124.516C347 128.458 349.665 130.981 353.829 130.981C358.082 130.981 360.707 128.116 361.54 122.566C362.808 114.106 359.974 109.372 351.118 105.156C336.005 97.9612 318.98 105.301 314.603 120.9C312.469 128.505 312.582 135.339 315.113 151.743L317.225 165.437L313.863 167.955C312.013 169.341 307.62 173.176 304.1 176.478C288.015 191.566 282.48 220.768 294.097 229.247C297.925 232.041 307.82 232.703 313.475 230.544C326.362 225.622 333.948 206.964 332.68 183.309L332.081 172.125L339.139 169.428C347.61 166.191 356.737 163.651 371.5 160.424C386.306 157.187 386.34 157.19 388.522 162.03C391.837 169.381 399.98 174.893 410.615 176.985C422.33 179.29 434.163 174.409 447.552 161.75L455.729 154.02L456.395 159.681C457.325 167.597 460.153 171.704 466.755 174.726C473.435 177.784 480.146 177.523 487.509 173.918C492.862 171.297 506.27 159.097 514.147 149.679C516.816 146.488 519 144.014 519 144.181C519 144.96 510.949 171.929 509.698 175.339C508.523 178.543 506.861 180.079 499.892 184.399C467.53 204.461 451.593 224.98 447.907 251.329C446.845 258.922 446.905 260.444 448.425 264.423C450.664 270.286 454.701 273.57 461.377 274.955C467.046 276.132 470.527 275.696 475.5 273.186C489.458 266.142 498.874 249.141 515.438 201.077C519.471 189.374 519.924 188.563 523.453 186.753C528.73 184.046 559.163 171.755 567.265 169.059C570.986 167.821 574.698 166.14 575.515 165.323C577.732 163.106 577.413 156.665 574.977 154.461C572.167 151.917 570.194 152.539 535.584 166.874C530.13 169.133 525.572 170.869 525.455 170.731C525.192 170.422 535.464 133.792 540.383 117.498C544.592 103.556 544.794 100.799 541.811 98.0202C537.385 93.8962 533.121 95.8241 529.098 103.769C522.251 117.289 500.961 146.142 490.875 155.57C485.539 160.557 479.693 163.981 476.515 163.981C475.123 163.981 473.248 162.846 471.971 161.231C470.155 158.934 469.893 157.653 470.381 153.451C471.178 146.591 475.776 131.731 481.201 118.481C487.078 104.128 487.474 102.354 485.487 99.3202C484.137 97.2612 483.216 96.9202 479.691 97.1762C475.666 97.4692 475.447 97.6592 474.172 101.981C473.442 104.456 471.011 111.071 468.77 116.681C465.65 124.491 464.219 126.952 462.664 127.181C461.511 127.352 456.247 132.66 450.485 139.466C439.595 152.327 432.187 158.271 422.553 161.875C415.268 164.601 412.234 164.53 406.824 161.506C401.701 158.643 398.011 152.894 397.807 147.456C397.656 143.459 399.013 142.029 403 141.983C407.681 141.929 421.481 136.333 428 131.844C436.66 125.882 441.002 118.925 440.994 111.025C440.987 103.236 439.434 98.5242 435.894 95.5452C433.389 93.4372 431.814 92.9812 427.039 92.9812C422.252 92.9812 419.812 93.6912 413.157 97.0222ZM418.876 107.405C415.514 109.703 405.848 121.558 403.117 126.731C402.02 128.81 402.141 128.981 404.715 128.98C409.004 128.979 419.151 123.712 422.74 119.624C427.817 113.842 429.093 110.802 427.657 107.912C426.017 104.609 423.203 104.447 418.876 107.405ZM138.763 114.495C129.911 117.746 119.573 127.405 115.438 136.286C113.69 140.042 113.017 143.231 113.01 147.797C112.986 163.392 121.834 165.297 135.648 152.672C142.324 146.57 144.937 142.801 152.904 127.785L159.109 116.089L156.104 114.535C152.443 112.642 143.862 112.622 138.763 114.495ZM311.699 185.78C305.049 192.5 302 199.277 302 207.337C302 211.235 302.492 213.117 303.829 214.326C308.039 218.137 313.268 215.326 316.589 207.467C318.471 203.015 319.952 179.981 318.356 179.981C317.851 179.981 314.855 182.59 311.699 185.78ZM492 206.323C471.236 222.338 461 238.223 461 254.428C461 258.039 463.752 261.981 466.272 261.981C470.243 261.981 482.497 246.864 489.051 233.879C492.374 227.298 502.186 201.037 501.777 199.821C501.625 199.367 497.225 202.293 492 206.323Z" fill="white"/>
</svg>
